<?xml version="1.0" encoding="UTF-8" standalone="no"?>
<svg
   version="1.0"
   width="345pt"
   height="343pt"
   viewBox="0 0 345 343"
   preserveAspectRatio="xMidYMid"
   id="svg41"
   sodipodi:docname="Vectorizado.svg"
   inkscape:version="1.4 (86a8ad7, 2024-10-11)"
   xmlns:inkscape="http://www.inkscape.org/namespaces/inkscape"
   xmlns:sodipodi="http://sodipodi.sourceforge.net/DTD/sodipodi-0.dtd"
   xmlns="http://www.w3.org/2000/svg"
   xmlns:svg="http://www.w3.org/2000/svg">
  <defs
     id="defs41" />
  <sodipodi:namedview
     id="namedview41"
     pagecolor="#ffffff"
     bordercolor="#000000"
     borderopacity="0.25"
     inkscape:showpageshadow="2"
     inkscape:pageopacity="0.0"
     inkscape:pagecheckerboard="0"
     inkscape:deskcolor="#d1d1d1"
     inkscape:document-units="pt"
     inkscape:zoom="1.2091837"
     inkscape:cx="229.90717"
     inkscape:cy="228.66667"
     inkscape:window-width="1366"
     inkscape:window-height="745"
     inkscape:window-x="-8"
     inkscape:window-y="-8"
     inkscape:window-maximized="1"
     inkscape:current-layer="g41">
    <inkscape:page
       x="0"
       y="0"
       width="345"
       height="343"
       id="page2"
       margin="0"
       bleed="0" />
  </sodipodi:namedview>
  <metadata
     id="metadata1">
Created by potrace 1.16, written by Peter Selinger 2001-2019
</metadata>
  <g
     transform="matrix(0.1,0,0,-0.1,0,343)"
     fill="#000000"
     stroke="none"
     id="g41">
    <path
       d="m 1297,3193 c -15,-15 -5,-35 23,-44 27,-10 33,-21 74,-147 134,-408 269,-799 280,-810 7,-7 19,-10 27,-7 9,3 74,183 168,463 85,251 158,465 163,475 5,10 21,22 34,28 16,6 24,15 22,27 -3,14 -15,17 -73,17 -58,0 -70,-3 -73,-17 -2,-12 6,-21 22,-28 14,-5 26,-11 26,-14 0,-4 -225,-668 -236,-696 -7,-17 -38,69 -160,434 l -87,258 28,22 c 47,38 27,46 -109,46 -67,0 -126,-3 -129,-7 z"
       id="path1"
       style="fill:#ffffff" />
    <path
       d="m 951,2772 c -64,-63 -79,-100 -68,-169 8,-46 12,-49 44,-32 45,24 65,72 99,237 7,35 -11,26 -75,-36 z"
       id="path2"
       style="fill:#ffffff" />
    <path
       d="m 2361,2773 c 19,-100 39,-152 72,-183 38,-36 53,-38 61,-7 19,72 -3,135 -70,197 -60,55 -74,53 -63,-7 z"
       id="path3"
       style="fill:#ffffff" />
    <path
       d="m 1196,2759 c -50,-12 -104,-53 -112,-85 -4,-16 -21,-32 -46,-45 C 904,2560 700,2373 607,2233 518,2099 442,1906 424,1768 l -7,-52 -16,49 c -9,28 -41,83 -71,123 -59,78 -68,78 -69,-3 -2,-87 38,-160 100,-185 26,-11 32,-11 40,1 5,9 9,-39 9,-124 0,-196 30,-331 112,-506 55,-118 120,-213 208,-304 174,-183 371,-298 626,-367 66,-17 91,-30 133,-67 28,-25 60,-61 71,-82 l 20,-36 -3,85 -2,85 -115,16 c -186,26 -357,93 -520,202 -90,61 -251,219 -308,304 -318,470 -271,1070 117,1476 123,128 305,257 366,257 70,0 165,54 195,111 10,17 7,19 -32,18 -24,-1 -61,-5 -82,-10 z"
       id="path4"
       style="fill:#ffffff" />
    <path
       d="m 2079,2741 c 43,-60 118,-101 186,-101 20,0 61,-18 115,-50 295,-177 504,-479 564,-815 8,-44 15,-67 15,-52 2,49 -30,179 -65,272 -96,247 -251,437 -480,587 -76,50 -117,84 -130,107 -25,46 -80,72 -161,79 l -67,5 z"
       id="path5"
       style="fill:#ffffff" />
    <path
       d="m 664,2583 c -66,-89 -82,-178 -44,-241 18,-29 23,-32 36,-21 34,28 48,73 46,149 -1,41 -6,90 -10,108 l -7,34 z"
       id="path6"
       style="fill:#ffffff" />
    <path
       d="m 2690,2600 c 0,-8 -5,-48 -10,-89 -11,-85 -2,-136 33,-177 l 23,-26 19,28 c 31,48 32,122 1,180 -32,63 -65,104 -66,84 z"
       id="path7"
       style="fill:#ffffff" />
    <path
       d="m 975,2550 c -12,-4 -26,-15 -33,-23 -11,-13 -7,-19 24,-38 46,-28 128,-36 190,-19 44,12 45,14 28,28 -65,49 -159,73 -209,52 z"
       id="path8"
       style="fill:#ffffff" />
    <path
       d="m 2254,2531 c -34,-16 -64,-34 -68,-39 -9,-15 88,-35 144,-30 26,3 64,15 85,28 l 38,23 -27,24 c -38,32 -95,30 -172,-6 z"
       id="path9"
       style="fill:#ffffff" />
    <path
       d="m 743,2340 c -44,-23 -60,-47 -43,-64 6,-6 46,-11 88,-11 67,0 83,4 126,29 l 49,30 -35,12 c -74,25 -140,27 -185,4 z"
       id="path10"
       style="fill:#ffffff" />
    <path
       d="m 2530,2353 c -46,-6 -100,-24 -100,-32 0,-4 25,-20 57,-35 48,-24 66,-28 120,-24 68,4 87,15 77,42 -12,32 -94,58 -154,49 z"
       id="path11"
       style="fill:#ffffff" />
    <path
       d="m 420,2295 c -43,-111 -35,-186 24,-244 l 34,-33 13,23 c 20,38 15,108 -14,184 -39,100 -43,106 -57,70 z"
       id="path12"
       style="fill:#ffffff" />
    <path
       d="m 2926,2285 c -28,-66 -56,-153 -56,-175 0,-11 7,-37 15,-57 l 15,-36 35,33 c 60,58 68,134 26,233 l -18,42 z"
       id="path13"
       style="fill:#ffffff" />
    <path
       d="m 618,2104 c -49,-15 -88,-53 -88,-85 0,-16 8,-19 45,-19 25,0 61,6 79,14 36,15 116,82 116,97 0,14 -100,9 -152,-7 z"
       id="path14"
       style="fill:#ffffff" />
    <path
       d="m 2610,2111 c 0,-14 77,-77 115,-95 18,-9 54,-16 79,-16 39,0 46,3 46,19 0,37 -47,79 -101,90 -61,13 -139,14 -139,2 z"
       id="path15"
       style="fill:#ffffff" />
    <path
       d="m 1434,1998 c -67,-132 -96,-238 -95,-351 0,-160 91,-267 259,-307 l 52,-12 V 1069 810 l -32,-20 c -18,-10 -54,-25 -80,-31 -26,-7 -48,-16 -48,-21 0,-4 88,-8 195,-8 107,0 195,4 195,8 0,5 -23,15 -52,23 -29,7 -65,24 -80,37 l -28,24 v 252 253 l 58,13 c 273,60 338,309 170,648 l -31,62 h -229 -228 z m 508,-55 c 49,-107 72,-204 72,-293 -2,-122 -43,-195 -141,-247 -81,-44 -175,-60 -250,-44 -269,60 -332,268 -183,599 l 29,62 h 219 219 z"
       id="path16"
       style="fill:#ffffff" />
    <path
       d="m 1400,1653 c 0,-120 68,-207 193,-244 196,-60 387,62 387,248 v 43 h -290 -290 z"
       id="path17"
       style="fill:#56070c;fill-opacity:1" />
    <path
       d="m 3054,1893 c -56,-71 -74,-110 -74,-163 0,-34 3,-40 22,-40 30,0 103,79 111,120 10,50 8,140 -3,140 -5,0 -30,-26 -56,-57 z"
       id="path18"
       style="fill:#ffffff" />
    <path
       d="m 587,1840 c -31,-10 -73,-30 -91,-44 -37,-28 -65,-91 -48,-108 12,-12 74,6 113,33 30,21 93,113 87,128 -1,5 -29,1 -61,-9 z"
       id="path19"
       style="fill:#ffffff" />
    <path
       d="m 2730,1849 c 0,-5 14,-31 31,-59 33,-54 89,-93 148,-104 33,-6 33,-6 27,27 -8,41 -35,77 -74,100 -39,23 -132,48 -132,36 z"
       id="path20"
       style="fill:#ffffff" />
    <path
       d="m 2957,1543 c -6,-160 -25,-254 -75,-385 C 2727,756 2337,454 1900,397 l -95,-12 -3,-85 -2,-85 25,44 c 42,72 107,118 210,146 467,130 796,459 905,905 20,79 41,380 28,380 -3,0 -8,-66 -11,-147 z"
       id="path21"
       style="fill:#ffffff" />
    <path
       d="m 210,1564 c 0,-36 39,-130 67,-163 34,-40 98,-69 129,-57 15,6 5,53 -21,93 -23,35 -175,145 -175,127 z"
       id="path22"
       style="fill:#ffffff" />
    <path
       d="m 546,1537 c -81,-58 -116,-129 -87,-175 11,-18 54,3 92,45 38,40 76,163 51,163 -5,0 -30,-15 -56,-33 z"
       id="path23"
       style="fill:#ffffff" />
    <path
       d="m 2770,1552 c 0,-45 31,-119 62,-149 47,-44 78,-59 89,-42 31,49 -20,135 -113,192 -34,21 -38,21 -38,-1 z"
       id="path24"
       style="fill:#ffffff" />
    <path
       d="m 3080,1511 c -77,-57 -93,-75 -109,-120 -15,-47 -14,-51 14,-51 36,0 86,23 112,51 23,26 56,95 67,142 9,39 -8,35 -84,-22 z"
       id="path25"
       style="fill:#ffffff" />
    <path
       d="m 606,1259 c -42,-49 -66,-98 -66,-133 0,-27 19,-76 30,-76 14,0 60,57 74,92 17,41 22,143 7,152 -5,4 -25,-12 -45,-35 z"
       id="path26"
       style="fill:#ffffff" />
    <path
       d="m 2727,1294 c -10,-11 -8,-94 3,-134 9,-34 64,-110 79,-110 12,0 31,48 31,77 0,52 -92,188 -113,167 z"
       id="path27"
       style="fill:#ffffff" />
    <path
       d="m 270,1191 c 0,-14 57,-96 86,-123 16,-15 42,-32 57,-37 42,-16 97,-14 103,4 10,24 -40,80 -93,105 -67,31 -153,60 -153,51 z"
       id="path28"
       style="fill:#ffffff" />
    <path
       d="m 3017,1165 c -84,-35 -125,-63 -143,-96 -20,-39 -12,-49 40,-49 58,0 124,43 164,109 18,28 32,53 32,56 0,11 -38,3 -93,-20 z"
       id="path29"
       style="fill:#ffffff" />
    <path
       d="m 740,988 c -31,-72 -35,-125 -13,-168 10,-19 25,-35 33,-35 22,0 50,63 50,111 0,44 -28,144 -40,144 -4,0 -18,-24 -30,-52 z"
       id="path30"
       style="fill:#ffffff" />
    <path
       d="m 2586,984 c -9,-26 -16,-66 -16,-88 0,-42 28,-107 48,-114 18,-6 52,59 52,98 -1,40 -39,142 -56,147 -7,2 -19,-17 -28,-43 z"
       id="path31"
       style="fill:#ffffff" />
    <path
       d="m 440,832 c 0,-16 80,-83 117,-99 70,-29 180,-14 166,22 -10,27 -86,64 -143,70 -30,3 -74,8 -97,11 -24,3 -43,1 -43,-4 z"
       id="path32"
       style="fill:#ffffff" />
    <path
       d="m 2823,829 c -80,-9 -116,-24 -151,-62 l -24,-25 24,-13 c 33,-18 117,-16 156,5 38,20 112,84 112,97 0,10 -15,10 -117,-2 z"
       id="path33"
       style="fill:#ffffff" />
    <path
       d="m 953,794 c -12,-49 -8,-137 9,-169 17,-32 63,-63 75,-52 3,4 8,31 11,61 4,45 0,62 -23,105 -16,28 -36,58 -46,67 -17,15 -19,14 -26,-12 z"
       id="path34"
       style="fill:#ffffff" />
    <path
       d="m 2381,780 c -16,-23 -35,-58 -42,-77 -11,-33 -8,-117 4,-129 12,-12 47,9 69,39 19,27 23,44 22,110 -2,100 -13,112 -53,57 z"
       id="path35"
       style="fill:#ffffff" />
    <path
       d="m 1200,632 c 0,-87 51,-172 113,-187 24,-6 27,-4 27,18 0,70 -39,136 -111,187 l -29,21 z"
       id="path36"
       style="fill:#ffffff" />
    <path
       d="m 2132,635 c -60,-52 -80,-85 -88,-143 -6,-45 -4,-52 10,-52 33,0 76,31 95,68 22,44 43,143 32,155 -4,4 -26,-9 -49,-28 z"
       id="path37"
       style="fill:#ffffff" />
    <path
       d="m 781,555 c -35,-8 -69,-16 -75,-18 -17,-6 74,-55 121,-65 63,-14 141,4 171,41 10,12 7,18 -14,32 -36,23 -125,28 -203,10 z"
       id="path38"
       style="fill:#ffffff" />
    <path
       d="m 2410,553 c -19,-10 -35,-22 -34,-28 0,-5 16,-21 35,-33 30,-21 43,-23 104,-20 66,5 144,32 159,57 8,12 -79,32 -164,38 -50,3 -73,0 -100,-14 z"
       id="path39"
       style="fill:#ffffff" />
    <path
       d="m 1195,406 c -68,-22 -168,-77 -158,-87 13,-13 133,-23 177,-15 35,7 106,63 106,84 0,7 -12,14 -27,18 -16,3 -35,7 -43,9 -8,2 -33,-2 -55,-9 z"
       id="path40"
       style="fill:#ffffff" />
    <path
       d="m 2102,410 c -45,-11 -49,-16 -26,-47 38,-50 80,-65 172,-60 119,7 123,18 21,66 -98,46 -122,52 -167,41 z"
       id="path41"
       style="fill:#ffffff" />
  </g>
</svg>
